<svg height="780" viewBox="0 0 720 780" width="720" xmlns="http://www.w3.org/2000/svg"><style>svg {
    font-family: SFMono-Regular,Consolas,Liberation Mono,Menlo,monospace;
    font-size: 14px;
    font-kerning: normal;
    text-rendering: optimizeLegibility;
    fill: #24292e;
}

text {
    text-anchor: middle;
    dominant-baseline: middle;
}

rect {
    fill: #f6f8fa;
}

.held {
    fill: #fdd;
}
</style><rect height="44" rx="6" ry="6" width="54" x="33" y="33"></rect><text x="60.0" y="55.0">Q</text><rect height="44" rx="6" ry="6" width="54" x="93" y="33"></rect><text x="120.0" y="55.0">W</text><rect height="44" rx="6" ry="6" width="54" x="153" y="33"></rect><text x="180.0" y="55.0">F</text><rect height="44" rx="6" ry="6" width="54" x="213" y="33"></rect><text x="240.0" y="55.0">P</text><rect height="44" rx="6" ry="6" width="54" x="273" y="33"></rect><text x="300.0" y="55.0">B</text><rect height="44" rx="6" ry="6" width="54" x="33" y="83"></rect><text x="60.0" y="105.0">A</text><rect height="44" rx="6" ry="6" width="54" x="93" y="83"></rect><text x="120.0" y="105.0">R</text><rect height="44" rx="6" ry="6" width="54" x="153" y="83"></rect><text x="180.0" y="105.0">S</text><rect height="44" rx="6" ry="6" width="54" x="213" y="83"></rect><text x="240.0" y="105.0">T</text><rect height="44" rx="6" ry="6" width="54" x="273" y="83"></rect><text x="300.0" y="105.0">G</text><rect height="44" rx="6" ry="6" width="54" x="33" y="133"></rect><text x="60.0" y="155.0">Z</text><rect height="44" rx="6" ry="6" width="54" x="93" y="133"></rect><text x="120.0" y="155.0">X</text><rect height="44" rx="6" ry="6" width="54" x="153" y="133"></rect><text x="180.0" y="155.0">C</text><rect height="44" rx="6" ry="6" width="54" x="213" y="133"></rect><text x="240.0" y="155.0">D</text><rect height="44" rx="6" ry="6" width="54" x="273" y="133"></rect><text x="300.0" y="155.0">V</text><rect height="44" rx="6" ry="6" width="54" x="213" y="183"></rect><text x="240.0" y="205.0">Tab</text><rect height="44" rx="6" ry="6" width="54" x="273" y="183"></rect><text x="300.0" y="205.0">Space</text><rect height="44" rx="6" ry="6" width="54" x="393" y="33"></rect><text x="420.0" y="55.0">J</text><rect height="44" rx="6" ry="6" width="54" x="453" y="33"></rect><text x="480.0" y="55.0">L</text><rect height="44" rx="6" ry="6" width="54" x="513" y="33"></rect><text x="540.0" y="55.0">U</text><rect height="44" rx="6" ry="6" width="54" x="573" y="33"></rect><text x="600.0" y="55.0">Y</text><rect height="44" rx="6" ry="6" width="54" x="633" y="33"></rect><text x="660.0" y="55.0">Del</text><rect height="44" rx="6" ry="6" width="54" x="393" y="83"></rect><text x="420.0" y="105.0">M</text><rect height="44" rx="6" ry="6" width="54" x="453" y="83"></rect><text x="480.0" y="105.0">N</text><rect height="44" rx="6" ry="6" width="54" x="513" y="83"></rect><text x="540.0" y="105.0">E</text><rect height="44" rx="6" ry="6" width="54" x="573" y="83"></rect><text x="600.0" y="105.0">I</text><rect height="44" rx="6" ry="6" width="54" x="633" y="83"></rect><text x="660.0" y="105.0">O</text><rect height="44" rx="6" ry="6" width="54" x="393" y="133"></rect><text x="420.0" y="155.0">K</text><rect height="44" rx="6" ry="6" width="54" x="453" y="133"></rect><text x="480.0" y="155.0">H</text><rect height="44" rx="6" ry="6" width="54" x="513" y="133"></rect><text x="540.0" y="155.0">,</text><rect height="44" rx="6" ry="6" width="54" x="573" y="133"></rect><text x="600.0" y="155.0">.</text><rect height="44" rx="6" ry="6" width="54" x="633" y="133"></rect><text x="660.0" y="155.0">/</text><rect height="44" rx="6" ry="6" width="54" x="393" y="183"></rect><text x="420.0" y="205.0">Bspc</text><rect height="44" rx="6" ry="6" width="54" x="453" y="183"></rect><text x="480.0" y="205.0">Esc</text><rect height="44" rx="6" ry="6" width="54" x="33" y="293"></rect><text x="60.0" y="315.0">1</text><rect height="44" rx="6" ry="6" width="54" x="93" y="293"></rect><text x="120.0" y="315.0">2</text><rect height="44" rx="6" ry="6" width="54" x="153" y="293"></rect><text x="180.0" y="315.0">3</text><rect height="44" rx="6" ry="6" width="54" x="213" y="293"></rect><text x="240.0" y="315.0">4</text><rect height="44" rx="6" ry="6" width="54" x="273" y="293"></rect><text x="300.0" y="315.0">5</text><rect height="44" rx="6" ry="6" width="54" x="33" y="343"></rect><text x="60.0" y="365.0">6</text><rect height="44" rx="6" ry="6" width="54" x="93" y="343"></rect><text x="120.0" y="365.0">7</text><rect height="44" rx="6" ry="6" width="54" x="153" y="343"></rect><text x="180.0" y="365.0">8</text><rect height="44" rx="6" ry="6" width="54" x="213" y="343"></rect><text x="240.0" y="365.0">9</text><rect height="44" rx="6" ry="6" width="54" x="273" y="343"></rect><text x="300.0" y="365.0">0</text><rect height="44" rx="6" ry="6" width="54" x="33" y="393"></rect><text x="60.0" y="415.0">C-z</text><rect height="44" rx="6" ry="6" width="54" x="93" y="393"></rect><text x="120.0" y="415.0">C-x</text><rect height="44" rx="6" ry="6" width="54" x="153" y="393"></rect><text x="180.0" y="415.0">C-c</text><rect height="44" rx="6" ry="6" width="54" x="213" y="393"></rect><text x="240.0" y="415.0">C-v</text><rect height="44" rx="6" ry="6" width="54" x="273" y="393"></rect><text x="300.0" y="415.0">C-s</text><rect height="44" rx="6" ry="6" width="54" x="213" y="443"></rect><text x="240.0" y="465.0"></text><rect height="44" rx="6" ry="6" width="54" x="273" y="443"></rect><text x="300.0" y="465.0"></text><rect height="44" rx="6" ry="6" width="54" x="393" y="293"></rect><text x="420.0" y="315.0">PgUp</text><rect height="44" rx="6" ry="6" width="54" x="453" y="293"></rect><text x="480.0" y="315.0">Home</text><rect height="44" rx="6" ry="6" width="54" x="513" y="293"></rect><text x="540.0" y="315.0">Up</text><rect height="44" rx="6" ry="6" width="54" x="573" y="293"></rect><text x="600.0" y="315.0">End</text><rect height="44" rx="6" ry="6" width="54" x="633" y="293"></rect><text x="660.0" y="315.0"></text><rect height="44" rx="6" ry="6" width="54" x="393" y="343"></rect><text x="420.0" y="365.0">PgDn</text><rect height="44" rx="6" ry="6" width="54" x="453" y="343"></rect><text x="480.0" y="365.0">Left</text><rect height="44" rx="6" ry="6" width="54" x="513" y="343"></rect><text x="540.0" y="365.0">Down</text><rect height="44" rx="6" ry="6" width="54" x="573" y="343"></rect><text x="600.0" y="365.0">Right</text><rect height="44" rx="6" ry="6" width="54" x="633" y="343"></rect><text x="660.0" y="365.0"></text><rect height="44" rx="6" ry="6" width="54" x="393" y="393"></rect><text x="420.0" y="415.0"></text><rect height="44" rx="6" ry="6" width="54" x="453" y="393"></rect><text x="480.0" y="415.0">Æ</text><rect height="44" rx="6" ry="6" width="54" x="513" y="393"></rect><text x="540.0" y="415.0">Ø</text><rect height="44" rx="6" ry="6" width="54" x="573" y="393"></rect><text x="600.0" y="415.0">Å</text><rect height="44" rx="6" ry="6" width="54" x="633" y="393"></rect><text x="660.0" y="415.0"></text><rect height="44" rx="6" ry="6" width="54" x="393" y="443"></rect><text x="420.0" y="465.0">Enter</text><rect height="44" rx="6" ry="6" width="54" x="453" y="443"></rect><text x="480.0" y="465.0">CapsWrd</text><rect height="44" rx="6" ry="6" width="54" x="33" y="553"></rect><text x="60.0" y="575.0">!</text><rect height="44" rx="6" ry="6" width="54" x="93" y="553"></rect><text x="120.0" y="575.0">@</text><rect height="44" rx="6" ry="6" width="54" x="153" y="553"></rect><text x="180.0" y="575.0">{</text><rect height="44" rx="6" ry="6" width="54" x="213" y="553"></rect><text x="240.0" y="575.0">}</text><rect height="44" rx="6" ry="6" width="54" x="273" y="553"></rect><text x="300.0" y="575.0">%</text><rect height="44" rx="6" ry="6" width="54" x="33" y="603"></rect><text x="60.0" y="625.0">^</text><rect height="44" rx="6" ry="6" width="54" x="93" y="603"></rect><text x="120.0" y="625.0">$</text><rect height="44" rx="6" ry="6" width="54" x="153" y="603"></rect><text x="180.0" y="625.0">[</text><rect height="44" rx="6" ry="6" width="54" x="213" y="603"></rect><text x="240.0" y="625.0">]</text><rect height="44" rx="6" ry="6" width="54" x="273" y="603"></rect><text x="300.0" y="625.0">#</text><rect height="44" rx="6" ry="6" width="54" x="33" y="653"></rect><text x="60.0" y="675.0">\</text><rect height="44" rx="6" ry="6" width="54" x="93" y="653"></rect><text x="120.0" y="675.0">|</text><rect height="44" rx="6" ry="6" width="54" x="153" y="653"></rect><text x="180.0" y="675.0">`</text><rect height="44" rx="6" ry="6" width="54" x="213" y="653"></rect><text x="240.0" y="675.0">~</text><rect height="44" rx="6" ry="6" width="54" x="273" y="653"></rect><text x="300.0" y="675.0">?</text><rect height="44" rx="6" ry="6" width="54" x="213" y="703"></rect><text x="240.0" y="725.0"></text><rect height="44" rx="6" ry="6" width="54" x="273" y="703"></rect><text x="300.0" y="725.0"></text><rect height="44" rx="6" ry="6" width="54" x="393" y="553"></rect><text x="420.0" y="575.0">&amp;</text><rect height="44" rx="6" ry="6" width="54" x="453" y="553"></rect><text x="480.0" y="575.0">&lt;</text><rect height="44" rx="6" ry="6" width="54" x="513" y="553"></rect><text x="540.0" y="575.0">&gt;</text><rect height="44" rx="6" ry="6" width="54" x="573" y="553"></rect><text x="600.0" y="575.0">&quot;</text><rect height="44" rx="6" ry="6" width="54" x="633" y="553"></rect><text x="660.0" y="575.0">=</text><rect height="44" rx="6" ry="6" width="54" x="393" y="603"></rect><text x="420.0" y="625.0">*</text><rect height="44" rx="6" ry="6" width="54" x="453" y="603"></rect><text x="480.0" y="625.0">(</text><rect height="44" rx="6" ry="6" width="54" x="513" y="603"></rect><text x="540.0" y="625.0">)</text><rect height="44" rx="6" ry="6" width="54" x="573" y="603"></rect><text x="600.0" y="625.0">&apos;</text><rect height="44" rx="6" ry="6" width="54" x="633" y="603"></rect><text x="660.0" y="625.0">+</text><rect height="44" rx="6" ry="6" width="54" x="393" y="653"></rect><text x="420.0" y="675.0">/</text><rect height="44" rx="6" ry="6" width="54" x="453" y="653"></rect><text x="480.0" y="675.0">_</text><rect height="44" rx="6" ry="6" width="54" x="513" y="653"></rect><text x="540.0" y="675.0">;</text><rect height="44" rx="6" ry="6" width="54" x="573" y="653"></rect><text x="600.0" y="675.0">:</text><rect height="44" rx="6" ry="6" width="54" x="633" y="653"></rect><text x="660.0" y="675.0">-</text><rect height="44" rx="6" ry="6" width="54" x="393" y="703"></rect><text x="420.0" y="725.0"></text><rect height="44" rx="6" ry="6" width="54" x="453" y="703"></rect><text x="480.0" y="725.0">RAlt</text></svg>
